# xmcd
#
# Track frame offsets: 
#        150
#        12245
#        28816
#        44702
#        65298
#        85649
#        107600
#        121910
#        147390
#        157132
#        171131
#        186304
#        197470
#        208591
#        225574
#        236865
#        243942
#        262185
#        276435
#
# Disc length: 3965 seconds
#
# Revision: 0
# Processed by: cddbd v1.5.1PL2 Copyright (c) Steve Scherf et al.
# Submitted via: ExactAudioCopy v0.95b1
#
DISCID=150f7b13
DTITLE=Johnny Cash - Last Performances
DYEAR=1900
DGENRE=Country
TTITLE0=Spoken Intro Jeanette Carter
TTITLE1=Folsom Prison Blues
TTITLE2=I Walk The Line
TTITLE3=Sunday Morning Coming Down
TTITLE4=Ring Of Fire
TTITLE5=Oh Come, Angel Band
TTITLE6=Big River
TTITLE7=Understand Your Man
TTITLE8=Spoken Jeanette Carter
TTITLE9=Jackson (With June Carter Cash)
TTITLE10=If I Were A Carpenter (With June Carter Cash)
TTITLE11=The Far Side Banks Of Jordan (With June Carter Cash)
TTITLE12=Spoken
TTITLE13=Daddy Sang Bass (With June Carter Cash)
TTITLE14=Spoken Johnny Cash
TTITLE15=Oh Come, Angel Band (With Rosie Carter)
TTITLE16=Far Side Banks Of Jordan  (With Laura Cash)
TTITLE17=Ring Of Fire
TTITLE18=I Walk The Line
EXTD=
EXTT0=
EXTT1=
EXTT2=
EXTT3=
EXTT4=
EXTT5=
EXTT6=
EXTT7=
EXTT8=
EXTT9=
EXTT10=
EXTT11=
EXTT12=
EXTT13=
EXTT14=
EXTT15=
EXTT16=
EXTT17=
EXTT18=
PLAYORDER=
